<svg xmlns="http://www.w3.org/2000/svg" viewBox="0 0 813 168">
  <defs>
    <style>
      .cls-1 {
        fill-rule: evenodd;
      }
    </style>
  </defs>
  <path id="brushstroke_1" data-name="brushstroke 1" class="cls-1" d="M453,14.6h6v1c3.217,0.74,3.641,1.361,4,5.013-1.719,1.13-1.355.634-2,3.008h4c1.382,2.619,1.769,1.7,2,6.016a3.989,3.989,0,0,0-2,2.005h6c3.124-2.661,10.354.312,15-1v-1h12v-1h10v-1h12v-1h10v-1h9v-1h8v-1h8v-1h9v-1h9v-1h9v-1h13v-1h14c5.445-1.539,14.943.709,21-1v-1h16v-1h18v-1l24-1,1,2.005h14c0.945,1.806,1.385,1.579,2,4.011l12,1v-1h15v-1h16c1.24-.344,6.278-2.132,9-1l1,2.005c3.439,1.428,12.048-.447,16,1v3.008h7c1.094,2.084,1.611,1.775,2,5.013-2.523,1.342-3.5,2-8,2.005-3.891,3.3-17.819-.723-22,3.008h7v-1h30a12.77,12.77,0,0,1,1,5.013,13.31,13.31,0,0,0-4,3.008,34.151,34.151,0,0,1,8,1v2.005h1l-1,3.008h-1v1h-6l-1,3.008c-2.137,2.53-3.7-.036-5,5.013-1.882.276-1.963,0.991-2,1h-5v1h15v1l16-1c1.382,2.619,1.769,1.7,2,6.016-1.135.846-.145-0.127-1,1l-24,1v1c-4.249,1.207-9.8-.2-13,1v1h8c2.146-1.9,8.216-.831,12-1,5.9-.267,13.635-1.079,21-1l1,3.008h1v1h-1c-3.6,5.326-8.433.916-12,4.01,3.016-.141,10.818-0.868,12,1v2.005h1l-2,4.01h-9v1H787v1h-5L777,89.8h-2v1c-3.192,1.22-6.837-.856-9,1l21,1v-1h11c1.094,2.084,1.611,1.775,2,5.013-3.494,1.852-5.13,2.077-11,2.005-1.934,1.788-8.393,1.1-12,1,0.644,2.745,1.309,2.282,2,5.013-1.8.946-1.574,1.388-4,2-2.924,2.457-10.393.229-15,1h-1v1H745v1H731v1H719v1H708v1H697v1H686c-10.894,3.12-25.349,1.951-36,5.013l-16,1v1h-8v1h-8v1h-8v1h-7v1h-8v1l-14,1c-12.774,3.752-29.215,3.291-42,7.018l-22,2c-14.978,4.4-33.994,3.682-49,8.021h-8v1h-7v1h-7v1l-15,1c-13.581,3.944-31.313,3.083-45,7.018h-8v1h-9v1h-9v1h-8v1h-9v1l-25,2v1h-9v1h-8v1h-8v1h-9v1l-15,1v-1h-4l-2-3.007h-6v-1h-4v-1h-2v-1l-11,1v1H223c-1.339-2.53-1.99-3.514-2-8.021,0.967-1.287.143-4.433,0-8.021,5.219-3.026,7.924-9.042,13-12.031v-1c-3.888-.026-6.439-0.647-8-3.008-2.9-3.445,1.544-5.141-5-6.015-2.638,2.219-8.014-.137-12,1v1h-9v1h-8v1H182v1h-9v1h-8v1h-8c-10.284,2.98-23.645,3.048-34,6.016h-9l-36,6.015H67a91.1,91.1,0,0,1-20,3.008l-3-5.013c-0.155-.063-4.859,1.176-7,1l-4-1v-2c-10.751-.057-20.819,2.916-29,2l-1-2H2l1-3.008c1.876-.825,2.616-1.485,5-2.005v-1H4v-1c-1.016-.773-0.984-1.233-2-2.006L3,127.9l9-2.006-1-6.015,3-1c1.583-1.488,6.787-1.992,10-2v-3.008H23c-3.029-3.537-8.569-1.235-14-1-1.756-3.325-2.058-4.379-2-10.026l3-1c1.417-1.332,6.228-1.927,9-2.005l1-6.016L26,91.8v-1H17v1l-5-1a10.645,10.645,0,0,1-1-4.011c1.139-1.142.4,0,1-2.005l12-2.005V77.765l2-1c3.09-2.931,5.512-.633,10-2.005v-1h5v-1c-8.134.057-14.322,2.138-21,1l-2-6.016c-4.745,1.769-10.387,2.022-17,2.005a12.757,12.757,0,0,1-1-5.013c1.135-.846.145,0.127,1-1l21-4.01,1-2.005h4v-1l10-1v-1h4v-1h4v-1h5v-1h5v-1l11-1v-1l13-1c11.744-3.561,27.1-3.538,39-7.018h8v-1h7v-1h8v-1h8v-1h7v-1l41-4.011v-1h8v-1h8v-1h8v-1h9v-1h7v-1h9c12.3-3.565,28.664-2.429,41-6.016l16-1v-1h9v-1h8v-1h8v-1h9v-1h7v-1l27-3.008C385.783,4.865,410.356-3.5,428,1.567h13v1h3l3,4.01c4.792,2.47,6.392-3.208,7,6.016C452.861,13.738,453.6,12.6,453,14.6ZM232,154.966v1h7v-1h-7Z"/>
</svg>
