<svg id="visual" viewBox="0 0 1920 200" preserveAspectRatio="none" xmlns="http://www.w3.org/2000/svg" xmlns:xlink="http://www.w3.org/1999/xlink" version="1.1"><rect x="0" y="0" fill="#001220"></rect><path d="M0 133L21.5 135.2C43 137.3 86 141.7 128.8 140.7C171.7 139.7 214.3 133.3 257.2 129.7C300 126 343 125 385.8 128.7C428.7 132.3 471.3 140.7 514.2 141.5C557 142.3 600 135.7 642.8 133.3C685.7 131 728.3 133 771.2 132.8C814 132.7 857 130.3 878.5 129.2L900 128L900 201L878.5 201C857 201 814 201 771.2 201C728.3 201 685.7 201 642.8 201C600 201 557 201 514.2 201C471.3 201 428.7 201 385.8 201C343 201 300 201 257.2 201C214.3 201 171.7 201 128.8 201C86 201 43 201 21.5 201L0 201Z" fill="#fa7268"></path><path d="M0 150L21.5 150.5C43 151 86 152 128.8 151.8C171.7 151.7 214.3 150.3 257.2 146.7C300 143 343 137 385.8 135.7C428.7 134.3 471.3 137.7 514.2 137.7C557 137.7 600 134.3 642.8 132.8C685.7 131.3 728.3 131.7 771.2 135.2C814 138.7 857 145.3 878.5 148.7L900 152L900 201L878.5 201C857 201 814 201 771.2 201C728.3 201 685.7 201 642.8 201C600 201 557 201 514.2 201C471.3 201 428.7 201 385.8 201C343 201 300 201 257.2 201C214.3 201 171.7 201 128.8 201C86 201 43 201 21.5 201L0 201Z" fill="#ef5f67"></path><path d="M0 169L21.5 167.7C43 166.3 86 163.7 128.8 163C171.7 162.3 214.3 163.7 257.2 161.3C300 159 343 153 385.8 150C428.7 147 471.3 147 514.2 150.8C557 154.7 600 162.3 642.8 165.3C685.7 168.3 728.3 166.7 771.2 163.5C814 160.3 857 155.7 878.5 153.3L900 151L900 201L878.5 201C857 201 814 201 771.2 201C728.3 201 685.7 201 642.8 201C600 201 557 201 514.2 201C471.3 201 428.7 201 385.8 201C343 201 300 201 257.2 201C214.3 201 171.7 201 128.8 201C86 201 43 201 21.5 201L0 201Z" fill="#e34c67"></path><path d="M0 165L21.5 166.8C43 168.7 86 172.3 128.8 174C171.7 175.7 214.3 175.3 257.2 173.3C300 171.3 343 167.7 385.8 165.8C428.7 164 471.3 164 514.2 163.8C557 163.7 600 163.3 642.8 162.8C685.7 162.3 728.3 161.7 771.2 162.5C814 163.3 857 165.7 878.5 166.8L900 168L900 201L878.5 201C857 201 814 201 771.2 201C728.3 201 685.7 201 642.8 201C600 201 557 201 514.2 201C471.3 201 428.7 201 385.8 201C343 201 300 201 257.2 201C214.3 201 171.7 201 128.8 201C86 201 43 201 21.5 201L0 201Z" fill="#d53867"></path><path d="M0 188L21.5 186.7C43 185.3 86 182.7 128.8 181C171.7 179.3 214.3 178.7 257.2 178.2C300 177.7 343 177.3 385.8 179.3C428.7 181.3 471.3 185.7 514.2 187.7C557 189.7 600 189.3 642.8 187.5C685.7 185.7 728.3 182.3 771.2 180.3C814 178.3 857 177.7 878.5 177.3L900 177L900 201L878.5 201C857 201 814 201 771.2 201C728.3 201 685.7 201 642.8 201C600 201 557 201 514.2 201C471.3 201 428.7 201 385.8 201C343 201 300 201 257.2 201C214.3 201 171.7 201 128.8 201C86 201 43 201 21.5 201L0 201Z" fill="#c62368"></path></svg>