<svg id="visual" viewBox="0 0 960 200" xmlns="http://www.w3.org/2000/svg" xmlns:xlink="http://www.w3.org/1999/xlink" version="1.1">
    <path d="M0 77L22.8 75.8C45.7 74.7 91.3 72.3 137 70.2C182.7 68 228.3 66 274 65.5C319.7 65 365.3 66 411.2 63.7C457 61.3 503 55.7 548.8 54.3C594.7 53 640.3 56 686 59.2C731.7 62.3 777.3 65.7 823 67.3C868.7 69 914.3 69 937.2 69L960 69L960 0L937.2 0C914.3 0 868.7 0 823 0C777.3 0 731.7 0 686 0C640.3 0 594.7 0 548.8 0C503 0 457 0 411.2 0C365.3 0 319.7 0 274 0C228.3 0 182.7 0 137 0C91.3 0 45.7 0 22.8 0L0 0Z" fill="#fa7268"></path>
    <path d="M0 53L22.8 53C45.7 53 91.3 53 137 52.2C182.7 51.3 228.3 49.7 274 49C319.7 48.3 365.3 48.7 411.2 48.8C457 49 503 49 548.8 49.2C594.7 49.3 640.3 49.7 686 49.3C731.7 49 777.3 48 823 50.2C868.7 52.3 914.3 57.7 937.2 60.3L960 63L960 0L937.2 0C914.3 0 868.7 0 823 0C777.3 0 731.7 0 686 0C640.3 0 594.7 0 548.8 0C503 0 457 0 411.2 0C365.3 0 319.7 0 274 0C228.3 0 182.7 0 137 0C91.3 0 45.7 0 22.8 0L0 0Z" fill="#ef5f67"></path>
    <path d="M0 45L22.8 46.2C45.7 47.3 91.3 49.7 137 48.3C182.7 47 228.3 42 274 40C319.7 38 365.3 39 411.2 41.2C457 43.3 503 46.7 548.8 46.5C594.7 46.3 640.3 42.7 686 42.3C731.7 42 777.3 45 823 44C868.7 43 914.3 38 937.2 35.5L960 33L960 0L937.2 0C914.3 0 868.7 0 823 0C777.3 0 731.7 0 686 0C640.3 0 594.7 0 548.8 0C503 0 457 0 411.2 0C365.3 0 319.7 0 274 0C228.3 0 182.7 0 137 0C91.3 0 45.7 0 22.8 0L0 0Z" fill="#e34c67"></path>
    <path d="M0 37L22.8 36.3C45.7 35.7 91.3 34.3 137 32.7C182.7 31 228.3 29 274 28C319.7 27 365.3 27 411.2 28.7C457 30.3 503 33.7 548.8 35C594.7 36.3 640.3 35.7 686 33.5C731.7 31.3 777.3 27.7 823 27C868.7 26.3 914.3 28.7 937.2 29.8L960 31L960 0L937.2 0C914.3 0 868.7 0 823 0C777.3 0 731.7 0 686 0C640.3 0 594.7 0 548.8 0C503 0 457 0 411.2 0C365.3 0 319.7 0 274 0C228.3 0 182.7 0 137 0C91.3 0 45.7 0 22.8 0L0 0Z" fill="#d53867"></path>
    <path d="M0 8L22.8 10.2C45.7 12.3 91.3 16.7 137 19.2C182.7 21.7 228.3 22.3 274 20.5C319.7 18.7 365.3 14.3 411.2 14.2C457 14 503 18 548.8 19.5C594.7 21 640.3 20 686 18.3C731.7 16.7 777.3 14.3 823 12.7C868.7 11 914.3 10 937.2 9.5L960 9L960 0L937.2 0C914.3 0 868.7 0 823 0C777.3 0 731.7 0 686 0C640.3 0 594.7 0 548.8 0C503 0 457 0 411.2 0C365.3 0 319.7 0 274 0C228.3 0 182.7 0 137 0C91.3 0 45.7 0 22.8 0L0 0Z" fill="#c62368"></path>
</svg>