<svg id="visual" viewBox="0 0 1920 200"  preserveAspectRatio="none" xmlns="http://www.w3.org/2000/svg" xmlns:xlink="http://www.w3.org/1999/xlink" version="1.1"><rect x="0" y="0" fill="#931C1C"></rect><path d="M0 36L274 73L549 85L823 43L1097 40L1371 80L1646 49L1920 85L1920 201L1646 201L1371 201L1097 201L823 201L549 201L274 201L0 201Z" fill="#871400"></path><path d="M0 97L274 108L549 72L823 85L1097 100L1371 73L1646 108L1920 85L1920 201L1646 201L1371 201L1097 201L823 201L549 201L274 201L0 201Z" fill="#a32d04"></path><path d="M0 136L274 126L549 105L823 129L1097 134L1371 131L1646 111L1920 100L1920 201L1646 201L1371 201L1097 201L823 201L549 201L274 201L0 201Z" fill="#be4407"></path><path d="M0 134L274 154L549 155L823 126L1097 125L1371 153L1646 152L1920 141L1920 201L1646 201L1371 201L1097 201L823 201L549 201L274 201L0 201Z" fill="#da5b09"></path><path d="M0 170L274 176L549 176L823 164L1097 151L1371 171L1646 170L1920 167L1920 201L1646 201L1371 201L1097 201L823 201L549 201L274 201L0 201Z" fill="#f5730a"></path></svg>