<svg id="visual" viewBox="0 0 900 50" preserveAspectRatio="none" xmlns="http://www.w3.org/2000/svg" xmlns:xlink="http://www.w3.org/1999/xlink" version="1.1"><rect x="0" y="0" fill="#931C1C"></rect><path d="M0 8L129 18L257 20L386 10L514 9L643 19L771 12L900 21L900 51L771 51L643 51L514 51L386 51L257 51L129 51L0 51Z" fill="#871400"></path><path d="M0 24L129 26L257 17L386 20L514 24L643 18L771 26L900 21L900 51L771 51L643 51L514 51L386 51L257 51L129 51L0 51Z" fill="#a32d04"></path><path d="M0 33L129 31L257 26L386 31L514 33L643 32L771 27L900 24L900 51L771 51L643 51L514 51L386 51L257 51L129 51L0 51Z" fill="#be4407"></path><path d="M0 33L129 38L257 38L386 31L514 31L643 37L771 37L900 35L900 51L771 51L643 51L514 51L386 51L257 51L129 51L0 51Z" fill="#da5b09"></path><path d="M0 42L129 43L257 43L386 40L514 37L643 42L771 42L900 41L900 51L771 51L643 51L514 51L386 51L257 51L129 51L0 51Z" fill="#f5730a"></path></svg>