<svg id="visual" viewBox="0 0 900 200" preserveAspectRatio="none" xmlns="http://www.w3.org/2000/svg" xmlns:xlink="http://www.w3.org/1999/xlink" version="1.1"><rect x="0" y="0" fill="#931C1C"></rect><path d="M0 103L129 105L257 122L386 124L514 86L643 120L771 103L900 90L900 201L771 201L643 201L514 201L386 201L257 201L129 201L0 201Z" fill="#871400"></path><path d="M0 112L129 132L257 130L386 107L514 113L643 133L771 129L900 116L900 201L771 201L643 201L514 201L386 201L257 201L129 201L0 201Z" fill="#a32d04"></path><path d="M0 123L129 131L257 128L386 131L514 151L643 142L771 149L900 157L900 201L771 201L643 201L514 201L386 201L257 201L129 201L0 201Z" fill="#be4407"></path><path d="M0 152L129 145L257 148L386 151L514 164L643 168L771 151L900 173L900 201L771 201L643 201L514 201L386 201L257 201L129 201L0 201Z" fill="#da5b09"></path><path d="M0 173L129 179L257 166L386 171L514 166L643 173L771 183L900 183L900 201L771 201L643 201L514 201L386 201L257 201L129 201L0 201Z" fill="#f5730a"></path></svg>